<?xml version="1.0" encoding="utf-8"?>
<!-- Generator: Adobe Illustrator 16.0.3, SVG Export Plug-In . SVG Version: 6.00 Build 0)  -->
<!DOCTYPE svg PUBLIC "-//W3C//DTD SVG 1.1//EN" "http://www.w3.org/Graphics/SVG/1.1/DTD/svg11.dtd">
<svg version="1.1" id="Capa_1" xmlns="http://www.w3.org/2000/svg" xmlns:xlink="http://www.w3.org/1999/xlink" x="0px" y="0px"
	 width="350.8px" height="44.034px" viewBox="0 0 350.8 44.034" enable-background="new 0 0 350.8 44.034" xml:space="preserve">
<path fill="#E75978" d="M347.952,30.75c0,6.627-5.373,12-12,12h-321c-6.627,0-12-5.373-12-12v-16c0-6.627,5.373-12,12-12h321
	c6.627,0,12,5.373,12,12V30.75z"/>
<g>
	<path fill="#FFFFFF" d="M85.56,32.732V12.115h6.089c1.822,0,3.438,0.406,4.85,1.218c1.411,0.812,2.504,1.963,3.278,3.455
		s1.161,3.2,1.161,5.126v1.034c0,1.954-0.389,3.672-1.168,5.154c-0.778,1.482-1.888,2.625-3.327,3.428
		c-1.44,0.802-3.089,1.203-4.949,1.203H85.56z M89.142,15.003v14.868h2.336c1.878,0,3.321-0.588,4.326-1.763
		c1.006-1.176,1.518-2.863,1.537-5.063v-1.147c0-2.237-0.486-3.946-1.458-5.126s-2.384-1.77-4.234-1.77H89.142z"/>
	<path fill="#FFFFFF" d="M103.529,24.93c0-1.501,0.297-2.853,0.892-4.057c0.595-1.203,1.43-2.128,2.506-2.775
		c1.076-0.646,2.313-0.97,3.71-0.97c2.067,0,3.745,0.666,5.034,1.997c1.288,1.331,1.984,3.096,2.088,5.296l0.014,0.807
		c0,1.511-0.29,2.86-0.871,4.05c-0.58,1.189-1.411,2.109-2.492,2.762c-1.081,0.65-2.329,0.977-3.745,0.977
		c-2.162,0-3.892-0.72-5.189-2.159c-1.298-1.44-1.947-3.358-1.947-5.756V24.93z M106.97,25.227c0,1.577,0.326,2.811,0.977,3.703
		c0.651,0.892,1.558,1.338,2.719,1.338s2.065-0.453,2.712-1.359c0.646-0.906,0.97-2.232,0.97-3.979c0-1.548-0.333-2.775-0.998-3.682
		c-0.666-0.906-1.57-1.359-2.712-1.359c-1.124,0-2.016,0.446-2.676,1.338C107.3,22.119,106.97,23.452,106.97,25.227z"/>
	<path fill="#FFFFFF" d="M134.143,27.988l2.436-10.577h3.356l-4.177,15.321h-2.832l-3.285-10.521l-3.229,10.521h-2.832
		l-4.191-15.321h3.356l2.478,10.464l3.144-10.464h2.591L134.143,27.988z"/>
	<path fill="#FFFFFF" d="M145.429,17.411l0.099,1.77c1.133-1.369,2.62-2.053,4.46-2.053c3.191,0,4.814,1.827,4.871,5.48v10.125
		h-3.441v-9.926c0-0.972-0.21-1.692-0.63-2.16c-0.42-0.467-1.107-0.701-2.061-0.701c-1.388,0-2.421,0.628-3.101,1.883v10.903h-3.441
		V17.411H145.429z"/>
	<path fill="#FFFFFF" d="M162.024,32.732h-3.441v-21.75h3.441V32.732z"/>
	<path fill="#FFFFFF" d="M165.125,24.93c0-1.501,0.297-2.853,0.892-4.057c0.595-1.203,1.43-2.128,2.506-2.775
		c1.076-0.646,2.313-0.97,3.71-0.97c2.067,0,3.746,0.666,5.035,1.997c1.287,1.331,1.984,3.096,2.088,5.296l0.014,0.807
		c0,1.511-0.289,2.86-0.871,4.05c-0.58,1.189-1.41,2.109-2.492,2.762c-1.08,0.65-2.329,0.977-3.745,0.977
		c-2.162,0-3.892-0.72-5.189-2.159c-1.298-1.44-1.947-3.358-1.947-5.756V24.93z M168.566,25.227c0,1.577,0.326,2.811,0.977,3.703
		c0.651,0.892,1.558,1.338,2.719,1.338s2.065-0.453,2.712-1.359c0.646-0.906,0.97-2.232,0.97-3.979c0-1.548-0.333-2.775-0.998-3.682
		c-0.666-0.906-1.57-1.359-2.712-1.359c-1.124,0-2.016,0.446-2.676,1.338C168.897,22.119,168.566,23.452,168.566,25.227z"/>
	<path fill="#FFFFFF" d="M191.435,32.732c-0.15-0.293-0.283-0.77-0.396-1.43c-1.095,1.142-2.436,1.713-4.021,1.713
		c-1.538,0-2.794-0.439-3.766-1.316c-0.973-0.879-1.459-1.964-1.459-3.258c0-1.633,0.606-2.886,1.82-3.759
		c1.213-0.874,2.947-1.31,5.203-1.31h2.109v-1.005c0-0.793-0.221-1.428-0.665-1.904c-0.444-0.477-1.118-0.715-2.024-0.715
		c-0.784,0-1.426,0.196-1.926,0.587c-0.501,0.392-0.751,0.89-0.751,1.494h-3.44c0-0.84,0.277-1.626,0.835-2.357
		c0.558-0.732,1.314-1.305,2.272-1.721c0.959-0.416,2.027-0.623,3.207-0.623c1.794,0,3.225,0.451,4.291,1.353
		c1.066,0.901,1.614,2.168,1.643,3.802v6.91c0,1.378,0.193,2.478,0.58,3.3v0.24H191.435z M187.654,30.253
		c0.68,0,1.319-0.164,1.919-0.495s1.05-0.774,1.352-1.331v-2.889h-1.854c-1.274,0-2.232,0.222-2.874,0.666
		c-0.643,0.443-0.963,1.07-0.963,1.883c0,0.66,0.219,1.188,0.658,1.579S186.918,30.253,187.654,30.253z"/>
	<path fill="#FFFFFF" d="M197.325,24.958c0-2.36,0.548-4.255,1.643-5.685c1.096-1.431,2.563-2.146,4.404-2.146
		c1.623,0,2.936,0.566,3.937,1.699v-7.845h3.44v21.75h-3.115l-0.17-1.586c-1.028,1.246-2.402,1.869-4.12,1.869
		c-1.794,0-3.245-0.723-4.354-2.166C197.88,29.404,197.325,27.441,197.325,24.958z M200.767,25.255c0,1.558,0.3,2.773,0.898,3.646
		c0.6,0.873,1.452,1.31,2.557,1.31c1.406,0,2.436-0.628,3.087-1.884v-6.542c-0.632-1.227-1.651-1.841-3.059-1.841
		c-1.114,0-1.974,0.441-2.577,1.324C201.069,22.152,200.767,23.48,200.767,25.255z"/>
	<path fill="#FFFFFF" d="M237.626,26.02c-0.208,2.2-1.02,3.915-2.436,5.147c-1.416,1.231-3.3,1.848-5.65,1.848
		c-1.643,0-3.09-0.39-4.34-1.168c-1.251-0.779-2.217-1.886-2.896-3.32c-0.68-1.436-1.033-3.102-1.062-4.999v-1.926
		c0-1.945,0.345-3.658,1.034-5.14c0.688-1.482,1.678-2.625,2.967-3.427c1.287-0.802,2.777-1.204,4.467-1.204
		c2.275,0,4.106,0.616,5.494,1.848c1.388,1.232,2.195,2.976,2.422,5.232h-3.568c-0.17-1.482-0.602-2.551-1.297-3.207
		c-0.693-0.656-1.711-0.984-3.051-0.984c-1.558,0-2.754,0.569-3.59,1.708c-0.836,1.138-1.262,2.809-1.281,5.01v1.828
		c0,2.23,0.398,3.93,1.197,5.102c0.797,1.172,1.965,1.758,3.504,1.758c1.406,0,2.464-0.316,3.172-0.949
		c0.708-0.632,1.156-1.685,1.346-3.157H237.626z"/>
	<path fill="#FFFFFF" d="M248.09,28.244l5.239-16.129h3.937l-7.42,20.617h-3.47l-7.391-20.617h3.922L248.09,28.244z"/>
</g>
</svg>
