<?xml version="1.0" encoding="utf-8"?>
<!-- Generator: Adobe Illustrator 16.0.0, SVG Export Plug-In . SVG Version: 6.00 Build 0)  -->
<!DOCTYPE svg PUBLIC "-//W3C//DTD SVG 1.1//EN" "http://www.w3.org/Graphics/SVG/1.1/DTD/svg11.dtd">
<svg version="1.1" id="Capa_1" xmlns="http://www.w3.org/2000/svg" xmlns:xlink="http://www.w3.org/1999/xlink" x="0px" y="0px"
	 width="960px" height="560px" viewBox="0 0 960 560" enable-background="new 0 0 960 560" xml:space="preserve">
<path opacity="0.2" fill-rule="evenodd" clip-rule="evenodd" fill="#E75978" d="M640.086,86.229
	c-67.062,2.295-71.964,74.582,17.365,76.574C679.476,163.291,753.947,82.328,640.086,86.229z"/>
<path opacity="0.2" fill-rule="evenodd" clip-rule="evenodd" fill="#E1F3E5" d="M292.752,40.145
	c45.937,1.568,49.295,51.086-11.894,52.449C265.774,92.93,214.766,37.471,292.752,40.145z"/>
<path opacity="0.2" fill-rule="evenodd" clip-rule="evenodd" fill="#FCEF6F" d="M853.6,111.598
	c45.938-1.572,49.294-51.086-11.896-52.451C826.621,58.813,775.611,114.27,853.6,111.598z"/>
<path opacity="0.2" fill-rule="evenodd" clip-rule="evenodd" fill="#E1F3E5" d="M770.649,198.865
	c-67.064,2.299-71.967,74.582,17.362,76.576C810.034,275.93,884.506,194.965,770.649,198.865z"/>
<path opacity="0.2" fill-rule="evenodd" clip-rule="evenodd" fill="#E1F3E5" d="M744.482,139.961
	c45.943,1.574,49.295,51.086-11.896,52.453C717.5,192.748,666.497,137.289,744.482,139.961z"/>
<path opacity="0.2" fill-rule="evenodd" clip-rule="evenodd" fill="#FCEF6F" d="M851.922,214.521
	c45.94-1.574,49.293-51.086-11.896-52.453C824.946,161.734,773.935,217.191,851.922,214.521z"/>
<path opacity="0.2" fill-rule="evenodd" clip-rule="evenodd" fill="#E1F3E5" d="M419.828,459.568
	c-67.062,2.299-71.964,74.584,17.369,76.578C459.217,536.631,533.689,455.668,419.828,459.568z"/>
<path opacity="0.2" fill-rule="evenodd" clip-rule="evenodd" fill="#E1F3E5" d="M289.18,445.336
	c45.938,1.572,49.296,51.086-11.894,52.453C262.196,498.123,211.19,442.664,289.18,445.336z"/>
<path opacity="0.2" fill-rule="evenodd" clip-rule="evenodd" fill="#FCEF6F" d="M75.324,217.396
	c45.94-1.572,49.3-51.088-11.89-52.451C48.345,164.609-2.663,220.068,75.324,217.396z"/>
<g opacity="0.2">
	<path fill-rule="evenodd" clip-rule="evenodd" fill="#FCEF6F" d="M496.155,383.039c3.089-37.928,90.72-150.646,137.449-123.723
		c98.812,56.922,119.944,71.512,119.702,172.033C753.164,484.762,473.732,658.645,496.155,383.039z"/>
	<path fill-rule="evenodd" clip-rule="evenodd" fill="#9B2671" d="M819.604,448.367c-65.844,54.221-256.117-55.611-136.702-142.959
		C771.325,240.73,892.495,388.346,819.604,448.367z"/>
	<path fill-rule="evenodd" clip-rule="evenodd" fill="#E1F3E5" d="M672.101,417.551c-82.438,2.824-88.46,91.68,21.344,94.129
		C720.519,512.279,812.054,412.758,672.101,417.551z"/>
</g>
<g opacity="0.2">
	<path fill-rule="evenodd" clip-rule="evenodd" fill="#FCEF6F" d="M230.299,365.58c33.42,25.377,188.994,54.463,200.36,7.563
		c24.019-99.164,27.171-122.105-55.709-194.041C330.911,140.883-12.522,181.193,230.299,365.58z"/>
	<path fill-rule="evenodd" clip-rule="evenodd" fill="#E75978" d="M408.491,127.748c-91.817,0-137.902,191.113,19.588,183.232
		C544.703,305.148,510.146,127.748,408.491,127.748z"/>
	<path fill-rule="evenodd" clip-rule="evenodd" fill="#E1F3E5" d="M328.075,236.943c-61.436,46.652-138.857-13.504-62.136-80.102
		C284.859,140.426,432.38,157.74,328.075,236.943z"/>
</g>
<path opacity="0.2" fill-rule="evenodd" clip-rule="evenodd" fill="#9B2671" d="M406.187,57.186
	c28.637,0.982,30.725,31.842-7.411,32.691C389.376,90.086,357.58,55.52,406.187,57.186z"/>
<path opacity="0.2" fill-rule="evenodd" clip-rule="evenodd" fill="#E1F3E5" d="M220.73,135.221
	c-28.636,0.98-30.725,31.842,7.411,32.691C237.54,168.121,269.33,133.557,220.73,135.221z"/>
<path opacity="0.2" fill-rule="evenodd" clip-rule="evenodd" fill="#E1F3E5" d="M882.579,273.033
	c-28.628,0.98-30.72,31.84,7.416,32.689C899.395,305.932,931.188,271.367,882.579,273.033z"/>
<path opacity="0.2" fill-rule="evenodd" clip-rule="evenodd" fill="#FB3739" d="M138.232,318.5
	c31.118,0.99,33.392,32.129-8.057,32.984C119.955,351.699,85.398,316.82,138.232,318.5z"/>
<path opacity="0.2" fill-rule="evenodd" clip-rule="evenodd" fill="#FCEF6F" d="M828.787,471.561
	c31.118,1.064,33.122,44.76-8.056,48.852C791.645,523.307,775.959,469.754,828.787,471.561z"/>
<path opacity="0.2" fill-rule="evenodd" clip-rule="evenodd" fill="#B0E2ED" d="M351.485,464.352
	c9.119,0.313,9.705,13.111-2.361,14.313C340.606,479.51,336.01,463.82,351.485,464.352z"/>
<path opacity="0.2" fill-rule="evenodd" clip-rule="evenodd" fill="#B0E2ED" d="M426.817,366.332
	c9.117,0.311,9.703,13.115-2.363,14.313C415.936,381.492,411.341,365.805,426.817,366.332z"/>
<path fill-rule="evenodd" clip-rule="evenodd" fill="#B0E2ED" d="M720.681,72.912c9.117,0.311,9.709,13.109-2.36,14.311
	C709.802,88.07,705.202,72.379,720.681,72.912z"/>
<path opacity="0.2" fill-rule="evenodd" clip-rule="evenodd" fill="#B0E2ED" d="M234.425,195.113
	c9.12,0.313,9.709,13.113-2.361,14.313C223.547,210.271,218.947,194.582,234.425,195.113z"/>
<path opacity="0.2" fill-rule="evenodd" clip-rule="evenodd" fill="#B0E2ED" d="M903.748,384.867
	c9.112,0.313,9.702,13.111-2.362,14.313C892.864,400.025,888.267,384.336,903.748,384.867z"/>
<path opacity="0.2" fill-rule="evenodd" clip-rule="evenodd" fill="#B0E2ED" d="M569.85,440.203
	c9.113,0.311,9.703,13.111-2.363,14.313C558.967,455.361,554.369,439.672,569.85,440.203z"/>
<path fill-rule="evenodd" clip-rule="evenodd" fill="#B0E2ED" d="M469.799,56.979c9.112,0.313,9.703,13.115-2.363,14.311
	C458.912,72.139,454.319,56.449,469.799,56.979z"/>
<path opacity="0.2" fill-rule="evenodd" clip-rule="evenodd" fill="#B0E2ED" d="M912.233,140.666
	c9.115,0.313,9.705,13.113-2.362,14.314C901.35,155.826,896.757,140.137,912.233,140.666z"/>
<path opacity="0.2" fill-rule="evenodd" clip-rule="evenodd" fill="#FB2B2B" d="M177.383,117.281
	c9.113,0.314,9.703,13.113-2.363,14.314C166.499,132.439,161.902,116.752,177.383,117.281z"/>
</svg>
