<?xml version="1.0" encoding="utf-8"?>
<!-- Generator: Adobe Illustrator 16.0.0, SVG Export Plug-In . SVG Version: 6.00 Build 0)  -->
<!DOCTYPE svg PUBLIC "-//W3C//DTD SVG 1.1//EN" "http://www.w3.org/Graphics/SVG/1.1/DTD/svg11.dtd">
<svg version="1.1" id="Capa_1" xmlns="http://www.w3.org/2000/svg" xmlns:xlink="http://www.w3.org/1999/xlink" x="0px" y="0px"
	 width="122px" height="122px" viewBox="0 0 122 122" enable-background="new 0 0 122 122" xml:space="preserve">
<g>
	<circle fill-rule="evenodd" clip-rule="evenodd" fill="#9B2671" cx="61.214" cy="61.37" r="57.911"/>
	<g>
		<g>
			<path fill-rule="evenodd" clip-rule="evenodd" fill="#F8F9F9" d="M46.641,69.027c1.708-4.852,3.008-9.602,0.936-14.523
				c-0.352-0.837-0.656-1.696-0.952-2.555c-1.059-3.079,0.208-6.137,2.947-7.146c2.989-1.1,6.073,0.17,7.29,3.154
				c1.898,4.661,3.689,9.365,5.525,14.05c1.123,2.864,2.282,5.716,3.357,8.597c1.155,3.094-0.052,6.09-2.81,7.183
				c-3.081,1.217-6.079-0.047-7.41-3.178c-1.227-2.889-2.404-5.797-3.612-8.695c-0.01-0.023-0.128-0.003-0.124-0.003
				c-0.826,2.293-1.428,4.67-2.528,6.792c-0.842,1.625-2.093,3.211-3.548,4.301c-3.288,2.468-7.247,1.278-8.773-2.515
				c-3.002-7.458-5.926-14.949-8.812-22.452c-1.188-3.089,0.073-6.13,2.804-7.196c3.027-1.18,6.167,0.119,7.416,3.229
				c2.45,6.096,4.809,12.231,7.212,18.349C45.903,67.292,46.28,68.156,46.641,69.027z"/>
			<path fill-rule="evenodd" clip-rule="evenodd" fill="#F8F9F9" d="M85.991,54.329c-2.537-2.698-2.854-5.595-0.884-7.863
				c1.532-1.765,3.753-2.478,5.631-1.811c2.517,0.898,4.028,2.993,4.011,5.56c-0.038,5.751-7.792,11.784-13.394,10.361
				c-0.743-0.188-1.382-0.778-2.051-1.548C82.34,58.466,84.876,57.54,85.991,54.329z"/>
		</g>
		<path fill-rule="evenodd" clip-rule="evenodd" fill="#F8F9F9" d="M71.089,74.669c-1.204-2.831-2.324-5.696-3.48-8.547
			c-1.891-4.665-3.828-9.31-5.656-13.999c-1.171-3.003,0.192-6.046,3.121-7.304c2.682-1.153,5.705,0.193,7.054,3.158
			c0.377,0.827,0.747,1.658,1.066,2.508c0.803,2.128,4.695,11.241,4.704,11.265c1.118,2.933,2.266,5.855,3.362,8.793
			c1.187,3.191-0.118,6.17-3.191,7.404C75.315,79.051,72.376,77.709,71.089,74.669z"/>
	</g>
</g>
</svg>
